# xmcd CD database file
# Copyright (C) 1993-1998 Ti Kan
# 
# Track frame offsets:
#     150
#     17072
#     35717
#     56605
#     78792
#     97165
#     112632
#     129082
#     147452
#     167847
#     187510
#     204155
#     222482
#     241952
# 
# Disc length: 3508 seconds
# 
# Revision: 1
# Processed by: cddbd v1.4b41PL1 Copyright (c) Steve Scherf et al.
# Submitted via: DiscPlay 4.0.4
# 
DISCID=b30db20e
DTITLE=Gustavo Lara - Gustavo Lara
DYEAR=1900
DGENRE=
TTITLE0=PRINCESA
TTITLE1=EL TIEMPO QUE VIVI
TTITLE2=A LA LUZ DE LAS VELAS
TTITLE3=ESCUCHAR TU VOZ
TTITLE4=A LA SOMBRA DE LOS ANGELES
TTITLE5=PERDER TU AMOR
TTITLE6=EL PRECIO DE LA PASION
TTITLE7=POR QUE SERA
TTITLE8=UN HUECO ENTRE MIS BRAZOS
TTITLE9=ME MUERO POR TI
TTITLE10=ALIENTO CON ALIENTO
TTITLE11=A LA SOMBRA DE LOS ANGELES (version acustica)
TTITLE12=ALIENTO CON ALIENTO (version mix)
TTITLE13=A LA SOMBRA DE LOS ANGELES (version mix)
EXTD=
EXTT0=
EXTT1=
EXTT2=
EXTT3=
EXTT4=
EXTT5=
EXTT6=
EXTT7=
EXTT8=
EXTT9=
EXTT10=
EXTT11=
EXTT12=
EXTT13=
PLAYORDER=
